<svg class="Logo_logo-mobile__kPAkO" fill="none" height="60" viewBox="0 0 92 60" width="92" xmlns="http://www.w3.org/2000/svg">
    <title>Logo der Rhätische Bahn</title>
    <path d="M46.4 29.29c.5-1.03 5.08-1.69 5.12.61v3.01h-3.14v-2.53c-.11-1.01-2.07-.61-2 .18v2.36h-3.1v-6.17h3.11v2.54h.01ZM83.36 26.74H63.82v6.18h19.54v-6.18Z" fill="#fff"></path>
    <path d="M83.37 24.97h-50.8l-4.72 4.75 3.16 3.19h-6.06l-1.92-1.79c-.72-.73-.72-1.91 0-2.64l5.81-5.97c.73-.88 1.86-1.51 3.08-1.51h51.44v3.96l.01.01ZM65.13 38.66c1.14-.01 2.32-.43 3.09-1.39l2.58-2.6H9v3.99h56.13Z" fill="#fff"></path>
    <path d="M39.83 30.36h.08c2.34.01 2.61-3.61-.14-3.62h-6.31v6.18h3.01v-2.43l1.76 2.43h3.95l-2.35-2.56Zm-1.86-.7h-1.48v-1.5h1.49c.91 0 .96 1.5-.01 1.5ZM58.03 31.63h-1.61v-1.31h1.6c.76 0 .76 1.31.01 1.31Zm-1.61-3.77h1.6c.76 0 .76 1.2 0 1.2h-1.6v-1.2Zm3.5 1.82c2.3-.25 1.97-2.94-.5-2.94h-6.01v6.18h6.38c2.75 0 2.79-3.11.14-3.24" fill="#fff"></path>
</svg>