STARTFONT 2.1
COMMENT
FONT MOBOTIX
SIZE 7 72 72
FONTBOUNDINGBOX 8 8 0 -1
STARTPROPERTIES 11
FOUNDRY ""
FAMILY_NAME ""
WEIGHT_NAME "Medium"
SLANT "R"
SETWIDTH_NAME "Normal"
SPACING "c"
CHARSET_REGISTRY "ISO-8859"
CHARSET_ENCODING "1"
COPYRIGHT "Copyright (c) MOBOTIX AG - All rights reserved"
FONT_ASCENT  7
FONT_DESCENT 1
ENDPROPERTIES
CHARS 108
STARTCHAR C040
ENCODING 32
SWIDTH 1142 0
DWIDTH 8 0
BBX 0 0 0 0
BITMAP
ENDCHAR
STARTCHAR C041
ENCODING 33
SWIDTH 1142 0
DWIDTH 8 0
BBX 4 7 1 0
BITMAP
60
f0
f0
60
60
00
60
ENDCHAR
STARTCHAR C042
ENCODING 34
SWIDTH 1142 0
DWIDTH 8 0
BBX 5 3 1 4
BITMAP
d8
d8
d8
ENDCHAR
STARTCHAR C043
ENCODING 35
SWIDTH 1142 0
DWIDTH 8 0
BBX 7 7 0 0
BITMAP
6c
6c
fe
6c
fe
6c
6c
ENDCHAR
STARTCHAR C044
ENCODING 36
SWIDTH 1142 0
DWIDTH 8 0
BBX 7 7 0 0
BITMAP
10
7c
d0
7c
16
7c
10
ENDCHAR
STARTCHAR C045
ENCODING 37
SWIDTH 1142 0
DWIDTH 8 0
BBX 7 6 0 0
BITMAP
c6
cc
18
30
66
c6
ENDCHAR
STARTCHAR C046
ENCODING 38
SWIDTH 1142 0
DWIDTH 8 0
BBX 7 7 0 0
BITMAP
38
6c
38
76
dc
cc
76
ENDCHAR
STARTCHAR C047
ENCODING 39
SWIDTH 1142 0
DWIDTH 8 0
BBX 3 3 0 4
BITMAP
60
60
c0
ENDCHAR
STARTCHAR C050
ENCODING 40
SWIDTH 1142 0
DWIDTH 8 0
BBX 4 7 1 0
BITMAP
30
60
c0
c0
c0
60
30
ENDCHAR
STARTCHAR C051
ENCODING 41
SWIDTH 1142 0
DWIDTH 8 0
BBX 4 7 1 0
BITMAP
c0
60
30
30
30
60
c0
ENDCHAR
STARTCHAR C052
ENCODING 42
SWIDTH 1142 0
DWIDTH 8 0
BBX 8 5 0 1
BITMAP
66
3c
ff
3c
66
ENDCHAR
STARTCHAR C053
ENCODING 43
SWIDTH 1142 0
DWIDTH 8 0
BBX 6 5 0 1
BITMAP
30
30
fc
30
30
ENDCHAR
STARTCHAR C054
ENCODING 44
SWIDTH 1142 0
DWIDTH 8 0
BBX 3 3 1 -1
BITMAP
60
60
c0
ENDCHAR
STARTCHAR C055
ENCODING 45
SWIDTH 1142 0
DWIDTH 8 0
BBX 6 1 0 3
BITMAP
fc
ENDCHAR
STARTCHAR C056
ENCODING 46
SWIDTH 1142 0
DWIDTH 8 0
BBX 2 2 2 0
BITMAP
c0
c0
ENDCHAR
STARTCHAR C057
ENCODING 47
SWIDTH 1142 0
DWIDTH 8 0
BBX 7 7 0 0
BITMAP
06
0c
18
30
60
c0
80
ENDCHAR
STARTCHAR C060
ENCODING 48
SWIDTH 1142 0
DWIDTH 8 0
BBX 6 7 0 0
BITMAP
78
cc
dc
fc
ec
cc
78
ENDCHAR
STARTCHAR C061
ENCODING 49
SWIDTH 1142 0
DWIDTH 8 0
BBX 4 7 1 0
BITMAP
60
e0
60
60
60
60
f0
ENDCHAR
STARTCHAR C062
ENCODING 50
SWIDTH 1142 0
DWIDTH 8 0
BBX 6 7 0 0
BITMAP
78
8c
0c
18
30
60
fc
ENDCHAR
STARTCHAR C063
ENCODING 51
SWIDTH 1142 0
DWIDTH 8 0
BBX 6 7 0 0
BITMAP
78
8c
0c
38
0c
8c
78
ENDCHAR
STARTCHAR C064
ENCODING 52
SWIDTH 1142 0
DWIDTH 8 0
BBX 7 7 0 0
BITMAP
4c
4c
cc
cc
fe
0c
0c
ENDCHAR
STARTCHAR C065
ENCODING 53
SWIDTH 1142 0
DWIDTH 8 0
BBX 6 7 0 0
BITMAP
fc
c0
f8
0c
0c
8c
78
ENDCHAR
STARTCHAR C066
ENCODING 54
SWIDTH 1142 0
DWIDTH 8 0
BBX 6 7 0 0
BITMAP
78
c4
c0
f8
cc
cc
78
ENDCHAR
STARTCHAR C067
ENCODING 55
SWIDTH 1142 0
DWIDTH 8 0
BBX 6 7 0 0
BITMAP
fc
0c
0c
18
30
30
30
ENDCHAR
STARTCHAR C070
ENCODING 56
SWIDTH 1142 0
DWIDTH 8 0
BBX 6 7 0 0
BITMAP
78
cc
cc
78
cc
cc
78
ENDCHAR
STARTCHAR C071
ENCODING 57
SWIDTH 1142 0
DWIDTH 8 0
BBX 6 7 0 0
BITMAP
78
cc
cc
7c
0c
0c
78
ENDCHAR
STARTCHAR C072
ENCODING 58
SWIDTH 1142 0
DWIDTH 8 0
BBX 2 5 2 0
BITMAP
c0
c0
00
c0
c0
ENDCHAR
STARTCHAR C073
ENCODING 59
SWIDTH 1142 0
DWIDTH 8 0
BBX 3 6 1 -1
BITMAP
60
60
00
60
60
c0
ENDCHAR
STARTCHAR C074
ENCODING 60
SWIDTH 1142 0
DWIDTH 8 0
BBX 5 7 0 0
BITMAP
18
30
60
c0
60
30
18
ENDCHAR
STARTCHAR C075
ENCODING 61
SWIDTH 1142 0
DWIDTH 8 0
BBX 6 3 0 2
BITMAP
fc
00
fc
ENDCHAR
STARTCHAR C076
ENCODING 62
SWIDTH 1142 0
DWIDTH 8 0
BBX 5 7 1 0
BITMAP
c0
60
30
18
30
60
c0
ENDCHAR
STARTCHAR C077
ENCODING 63
SWIDTH 1142 0
DWIDTH 8 0
BBX 6 7 0 0
BITMAP
fc
cc
0c
3c
30
00
30
ENDCHAR
STARTCHAR C100
ENCODING 64
SWIDTH 1142 0
DWIDTH 8 0
BBX 7 7 0 0
BITMAP
7c
c6
de
de
de
c0
78
ENDCHAR
STARTCHAR B
ENCODING 65
SWIDTH 1000 0
DWIDTH 7 0
BBX 6 7 0 0
BITMAP
30
78
cc
cc
fc
cc
cc
ENDCHAR
STARTCHAR C102
ENCODING 66
SWIDTH 1142 0
DWIDTH 8 0
BBX 7 7 0 0
BITMAP
fc
c6
c6
fc
c6
c6
fc
ENDCHAR
STARTCHAR C103
ENCODING 67
SWIDTH 1142 0
DWIDTH 8 0
BBX 7 7 0 0
BITMAP
7c
c2
c0
c0
c0
c2
7c
ENDCHAR
STARTCHAR C104
ENCODING 68
SWIDTH 1142 0
DWIDTH 8 0
BBX 7 7 0 0
BITMAP
f8
cc
c6
c6
c6
cc
f8
ENDCHAR
STARTCHAR C105
ENCODING 69
SWIDTH 1142 0
DWIDTH 8 0
BBX 7 7 0 0
BITMAP
fe
c0
c0
f8
c0
c0
fe
ENDCHAR
STARTCHAR F
ENCODING 70
SWIDTH 1142 0
DWIDTH 8 0
BBX 7 7 0 0
BITMAP
fe
c0
c0
f8
c0
c0
c0
ENDCHAR
STARTCHAR C107
ENCODING 71
SWIDTH 1142 0
DWIDTH 8 0
BBX 7 7 0 0
BITMAP
7c
c2
c0
de
c6
c6
7c
ENDCHAR
STARTCHAR C110
ENCODING 72
SWIDTH 1142 0
DWIDTH 8 0
BBX 7 7 0 0
BITMAP
c6
c6
c6
fe
c6
c6
c6
ENDCHAR
STARTCHAR C111
ENCODING 73
SWIDTH 1142 0
DWIDTH 8 0
BBX 2 7 2 0
BITMAP
c0
c0
c0
c0
c0
c0
c0
ENDCHAR
STARTCHAR C112
ENCODING 74
SWIDTH 1142 0
DWIDTH 8 0
BBX 6 7 0 0
BITMAP
fc
0c
0c
0c
8c
8c
78
ENDCHAR
STARTCHAR C113
ENCODING 75
SWIDTH 1142 0
DWIDTH 8 0
BBX 7 7 0 0
BITMAP
c6
cc
d8
f0
d8
cc
c6
ENDCHAR
STARTCHAR C114
ENCODING 76
SWIDTH 1142 0
DWIDTH 8 0
BBX 7 7 0 0
BITMAP
c0
c0
c0
c0
c0
c0
fe
ENDCHAR
STARTCHAR C115
ENCODING 77
SWIDTH 1142 0
DWIDTH 8 0
BBX 7 7 0 0
BITMAP
c6
ee
fe
d6
c6
c6
c6
ENDCHAR
STARTCHAR C116
ENCODING 78
SWIDTH 1142 0
DWIDTH 8 0
BBX 7 7 0 0
BITMAP
c6
e6
f6
de
ce
c6
c6
ENDCHAR
STARTCHAR C117
ENCODING 79
SWIDTH 1142 0
DWIDTH 8 0
BBX 7 7 0 0
BITMAP
7c
c6
c6
c6
c6
c6
7c
ENDCHAR
STARTCHAR C120
ENCODING 80
SWIDTH 1142 0
DWIDTH 8 0
BBX 7 7 0 0
BITMAP
fc
c6
c6
fc
c0
c0
c0
ENDCHAR
STARTCHAR C121
ENCODING 81
SWIDTH 1142 0
DWIDTH 8 0
BBX 7 7 0 0
BITMAP
7c
c6
c6
c6
de
ce
7e
ENDCHAR
STARTCHAR C122
ENCODING 82
SWIDTH 1142 0
DWIDTH 8 0
BBX 7 7 0 0
BITMAP
fc
c6
c6
fc
d8
cc
c6
ENDCHAR
STARTCHAR C123
ENCODING 83
SWIDTH 1142 0
DWIDTH 8 0
BBX 7 7 0 0
BITMAP
7c
c6
c0
7c
06
c6
7c
ENDCHAR
STARTCHAR C124
ENCODING 84
SWIDTH 1142 0
DWIDTH 8 0
BBX 6 7 0 0
BITMAP
fc
30
30
30
30
30
30
ENDCHAR
STARTCHAR C125
ENCODING 85
SWIDTH 1142 0
DWIDTH 8 0
BBX 6 7 0 0
BITMAP
cc
cc
cc
cc
cc
cc
78
ENDCHAR
STARTCHAR C126
ENCODING 86
SWIDTH 1142 0
DWIDTH 8 0
BBX 6 7 0 0
BITMAP
cc
cc
cc
cc
cc
78
30
ENDCHAR
STARTCHAR C127
ENCODING 87
SWIDTH 1142 0
DWIDTH 8 0
BBX 7 7 0 0
BITMAP
c6
c6
c6
d6
fe
ee
c6
ENDCHAR
STARTCHAR C130
ENCODING 88
SWIDTH 1142 0
DWIDTH 8 0
BBX 7 7 0 0
BITMAP
c6
ee
7c
38
7c
ee
c6
ENDCHAR
STARTCHAR C131
ENCODING 89
SWIDTH 1142 0
DWIDTH 8 0
BBX 6 7 0 0
BITMAP
cc
cc
cc
78
30
30
30
ENDCHAR
STARTCHAR C132
ENCODING 90
SWIDTH 1142 0
DWIDTH 8 0
BBX 7 7 0 0
BITMAP
fe
0c
18
30
60
c0
fe
ENDCHAR
STARTCHAR C133
ENCODING 91
SWIDTH 1142 0
DWIDTH 8 0
BBX 4 7 1 0
BITMAP
f0
c0
c0
c0
c0
c0
f0
ENDCHAR
STARTCHAR C134
ENCODING 92
SWIDTH 1142 0
DWIDTH 8 0
BBX 7 7 0 0
BITMAP
c0
60
30
18
0c
06
02
ENDCHAR
STARTCHAR C135
ENCODING 93
SWIDTH 1142 0
DWIDTH 8 0
BBX 4 7 1 0
BITMAP
f0
30
30
30
30
30
f0
ENDCHAR
STARTCHAR C136
ENCODING 94
SWIDTH 1142 0
DWIDTH 8 0
BBX 7 4 0 3
BITMAP
10
38
6c
c6
ENDCHAR
STARTCHAR C137
ENCODING 95
SWIDTH 1142 0
DWIDTH 8 0
BBX 8 1 0 -1
BITMAP
ff
ENDCHAR
STARTCHAR C140
ENCODING 96
SWIDTH 1142 0
DWIDTH 8 0
BBX 3 3 1 4
BITMAP
c0
c0
60
ENDCHAR
STARTCHAR C141
ENCODING 97
SWIDTH 1142 0
DWIDTH 8 0
BBX 6 5 0 0
BITMAP
78
0c
7c
cc
7c
ENDCHAR
STARTCHAR C142
ENCODING 98
SWIDTH 1142 0
DWIDTH 8 0
BBX 6 7 0 0
BITMAP
c0
c0
f8
cc
cc
cc
f8
ENDCHAR
STARTCHAR C143
ENCODING 99
SWIDTH 1142 0
DWIDTH 8 0
BBX 6 5 0 0
BITMAP
78
cc
c0
cc
78
ENDCHAR
STARTCHAR C144
ENCODING 100
SWIDTH 1142 0
DWIDTH 8 0
BBX 6 7 0 0
BITMAP
0c
0c
7c
cc
cc
cc
7c
ENDCHAR
STARTCHAR C145
ENCODING 101
SWIDTH 1142 0
DWIDTH 8 0
BBX 6 5 0 0
BITMAP
78
cc
fc
c0
78
ENDCHAR
STARTCHAR C146
ENCODING 102
SWIDTH 1142 0
DWIDTH 8 0
BBX 5 7 0 0
BITMAP
38
60
60
f8
60
60
60
ENDCHAR
STARTCHAR C147
ENCODING 103
SWIDTH 1142 0
DWIDTH 8 0
BBX 6 6 0 -1
BITMAP
7c
cc
cc
7c
0c
78
ENDCHAR
STARTCHAR C150
ENCODING 104
SWIDTH 1142 0
DWIDTH 8 0
BBX 6 7 0 0
BITMAP
c0
c0
f8
cc
cc
cc
cc
ENDCHAR
STARTCHAR C151
ENCODING 105
SWIDTH 1142 0
DWIDTH 8 0
BBX 2 7 2 0
BITMAP
c0
00
c0
c0
c0
c0
c0
ENDCHAR
STARTCHAR C152
ENCODING 106
SWIDTH 1142 0
DWIDTH 8 0
BBX 4 8 1 -1
BITMAP
30
00
70
30
30
30
30
e0
ENDCHAR
STARTCHAR C153
ENCODING 107
SWIDTH 1142 0
DWIDTH 8 0
BBX 5 7 0 0
BITMAP
c0
c0
c8
d0
e0
d0
c8
ENDCHAR
STARTCHAR C154
ENCODING 108
SWIDTH 1142 0
DWIDTH 8 0
BBX 3 7 2 0
BITMAP
c0
c0
c0
c0
c0
c0
e0
ENDCHAR
STARTCHAR C155
ENCODING 109
SWIDTH 1142 0
DWIDTH 8 0
BBX 7 5 0 0
BITMAP
ec
d6
d6
c6
c6
ENDCHAR
STARTCHAR C156
ENCODING 110
SWIDTH 1142 0
DWIDTH 8 0
BBX 6 5 0 0
BITMAP
f8
cc
cc
cc
cc
ENDCHAR
STARTCHAR C157
ENCODING 111
SWIDTH 1142 0
DWIDTH 8 0
BBX 6 5 0 0
BITMAP
78
cc
cc
cc
78
ENDCHAR
STARTCHAR C160
ENCODING 112
SWIDTH 1142 0
DWIDTH 8 0
BBX 6 6 0 -1
BITMAP
f8
cc
cc
cc
f8
c0
ENDCHAR
STARTCHAR C161
ENCODING 113
SWIDTH 1142 0
DWIDTH 8 0
BBX 6 6 0 -1
BITMAP
7c
cc
cc
cc
7c
0c
ENDCHAR
STARTCHAR C162
ENCODING 114
SWIDTH 1142 0
DWIDTH 8 0
BBX 6 5 0 0
BITMAP
fc
cc
c0
c0
c0
ENDCHAR
STARTCHAR C163
ENCODING 115
SWIDTH 1142 0
DWIDTH 8 0
BBX 6 5 0 0
BITMAP
7c
c0
fc
0c
fc
ENDCHAR
STARTCHAR C164
ENCODING 116
SWIDTH 1142 0
DWIDTH 8 0
BBX 4 6 0 0
BITMAP
60
f0
60
60
60
70
ENDCHAR
STARTCHAR C165
ENCODING 117
SWIDTH 1142 0
DWIDTH 8 0
BBX 6 5 0 0
BITMAP
cc
cc
cc
cc
7c
ENDCHAR
STARTCHAR C166
ENCODING 118
SWIDTH 1142 0
DWIDTH 8 0
BBX 6 5 0 0
BITMAP
cc
cc
cc
78
30
ENDCHAR
STARTCHAR C167
ENCODING 119
SWIDTH 1142 0
DWIDTH 8 0
BBX 7 5 0 0
BITMAP
c6
c6
d6
d6
7c
ENDCHAR
STARTCHAR C170
ENCODING 120
SWIDTH 1142 0
DWIDTH 8 0
BBX 6 5 0 0
BITMAP
cc
78
30
78
cc
ENDCHAR
STARTCHAR C171
ENCODING 121
SWIDTH 1142 0
DWIDTH 8 0
BBX 6 6 0 -1
BITMAP
cc
cc
cc
78
18
70
ENDCHAR
STARTCHAR C172
ENCODING 122
SWIDTH 1142 0
DWIDTH 8 0
BBX 6 5 0 0
BITMAP
fc
0c
30
c0
fc
ENDCHAR
STARTCHAR C173
ENCODING 123
SWIDTH 1142 0
DWIDTH 8 0
BBX 5 7 0 0
BITMAP
38
60
60
c0
60
60
38
ENDCHAR
STARTCHAR C174
ENCODING 124
SWIDTH 1142 0
DWIDTH 8 0
BBX 2 7 2 0
BITMAP
c0
c0
c0
c0
c0
c0
c0
ENDCHAR
STARTCHAR C175
ENCODING 125
SWIDTH 1142 0
DWIDTH 8 0
BBX 5 7 1 0
BITMAP
e0
30
30
18
30
30
e0
ENDCHAR
STARTCHAR C176
ENCODING 126
SWIDTH 1142 0
DWIDTH 8 0
BBX 7 2 0 2
BITMAP
76
dc
ENDCHAR
STARTCHAR C247
ENCODING 167
SWIDTH 1142 0
DWIDTH 8 0
BBX 6 7 1 0
BITMAP
7c
80
f8
cc
7c
04
f8
ENDCHAR
STARTCHAR C251
ENCODING 169
SWIDTH 1142 0
DWIDTH 8 0
BBX 7 8 0 -1
BITMAP
38
44
9a
a2
a2
9a
44
38
ENDCHAR
STARTCHAR C256
ENCODING 174
SWIDTH 1142 0
DWIDTH 8 0
BBX 7 8 0 -1
BITMAP
38
44
b2
aa
b2
aa
44
38
ENDCHAR
STARTCHAR C260
ENCODING 176
SWIDTH 1142 0
DWIDTH 8 0
BBX 4 4 0 3
BITMAP
60
90
90
60
ENDCHAR
STARTCHAR C261
ENCODING 177
SWIDTH 1142 0
DWIDTH 8 0
BBX 6 6 0 0
BITMAP
30
30
fc
30
00
fc
ENDCHAR
STARTCHAR C265
ENCODING 181
SWIDTH 1142 0
DWIDTH 8 0
BBX 6 6 0 -1
BITMAP
cc
cc
cc
f8
c0
c0
ENDCHAR
STARTCHAR C304
ENCODING 196
SWIDTH 1142 0
DWIDTH 8 0
BBX 6 7 0 0
BITMAP
84
30
78
cc
cc
fc
cc
ENDCHAR
STARTCHAR C326
ENCODING 214
SWIDTH 1142 0
DWIDTH 8 0
BBX 6 7 0 0
BITMAP
84
78
cc
cc
cc
cc
78
ENDCHAR
STARTCHAR C334
ENCODING 220
SWIDTH 1142 0
DWIDTH 8 0
BBX 6 7 0 0
BITMAP
84
00
cc
cc
cc
cc
78
ENDCHAR
STARTCHAR C337
ENCODING 223
SWIDTH 1142 0
DWIDTH 8 0
BBX 6 8 0 -1
BITMAP
f0
d8
d8
fc
cc
cc
f8
c0
ENDCHAR
STARTCHAR C344
ENCODING 228
SWIDTH 1142 0
DWIDTH 8 0
BBX 6 7 0 0
BITMAP
48
00
78
0c
7c
cc
7c
ENDCHAR
STARTCHAR C366
ENCODING 246
SWIDTH 1142 0
DWIDTH 8 0
BBX 6 7 0 0
BITMAP
48
00
78
cc
cc
cc
78
ENDCHAR
STARTCHAR C374
ENCODING 252
SWIDTH 1142 0
DWIDTH 8 0
BBX 6 7 0 0
BITMAP
48
00
cc
cc
cc
cc
7c
ENDCHAR
ENDFONT
